<svg width="332" height="213" viewBox="0 0 332 213" fill="none" xmlns="http://www.w3.org/2000/svg">
<path d="M69.2097 97.0952C68.1888 99.4474 62.6944 111.407 52.3728 123.311C41.0722 136.344 23.9344 149.366 0.508542 149.552L0.508543 159.988C23.9345 160.174 41.0722 173.193 52.3728 186.22C62.6976 198.123 68.1911 210.078 69.2087 212.416L82.8083 209.316C81.5881 206.475 75.637 193.436 64.0876 180.25C57.1388 172.318 49.468 165.903 41.2576 161.001L40.8689 161.001L40.8689 148.758L41.1179 148.611C49.3939 143.685 57.1052 137.246 64.0876 129.276C75.6366 116.09 81.5878 103.038 82.8083 100.195L69.2097 97.0952Z" fill="#F7EBDF" stroke="#F7EBDF" stroke-width="1.01806"></path>
<path d="M36.5373 154.757C107.872 161.452 289.842 147.215 327 1.2333" stroke="#F7EBDF" stroke-width="10"></path>
</svg>