<svg width="332" height="213" viewBox="0 0 332 213" fill="none" xmlns="http://www.w3.org/2000/svg">
<path d="M69.2099 97.0952C68.189 99.4474 62.6946 111.407 52.373 123.311C41.0724 136.344 23.9346 149.366 0.508735 149.552L0.508735 159.988C23.9347 160.174 41.0724 173.193 52.373 186.22C62.6978 198.123 68.1913 210.078 69.2089 212.416L82.8085 209.316C81.5883 206.475 75.6372 193.436 64.0878 180.25C57.139 172.318 49.4682 165.903 41.2578 161.001L40.8691 161.001L40.8691 148.758L41.1181 148.611C49.3941 143.685 57.1054 137.246 64.0878 129.276C75.6368 116.09 81.588 103.038 82.8085 100.195L69.2099 97.0952Z" fill="#00C2B9" stroke="#00C2B9" stroke-width="1.01806"></path>
<path d="M36.5372 154.757C107.872 161.452 289.842 147.215 327 1.2333" stroke="#00C2B9" stroke-width="10"></path>
</svg>