<svg width="332" height="213" viewBox="0 0 332 213" fill="none" xmlns="http://www.w3.org/2000/svg">
<path d="M69.2098 97.0952C68.1889 99.4474 62.6945 111.407 52.3729 123.311C41.0723 136.344 23.9346 149.366 0.508664 149.552L0.508665 159.988C23.9346 160.174 41.0723 173.193 52.3729 186.22C62.6977 198.123 68.1913 210.078 69.2089 212.416L82.8085 209.316C81.5882 206.475 75.6371 193.436 64.0878 180.25C57.1389 172.318 49.4681 165.903 41.2577 161.001L40.869 161.001L40.869 148.758L41.118 148.611C49.3941 143.685 57.1053 137.246 64.0878 129.276C75.6367 116.09 81.5879 103.038 82.8085 100.195L69.2098 97.0952Z" fill="#E95944" stroke="#E95944" stroke-width="1.01806"></path>
<path d="M36.5373 154.757C107.872 161.452 289.842 147.215 327 1.2333" stroke="#E95944" stroke-width="10"></path>
</svg>