<svg width="332" height="213" viewBox="0 0 332 213" fill="none" xmlns="http://www.w3.org/2000/svg">
<path d="M69.2098 97.0959C68.1889 99.4481 62.6945 111.408 52.3729 123.312C41.0723 136.345 23.9346 149.367 0.508664 149.553L0.508665 159.989C23.9346 160.175 41.0723 173.194 52.3729 186.221C62.6977 198.123 68.1913 210.079 69.2089 212.416L82.8085 209.317C81.5882 206.476 75.6371 193.437 64.0878 180.25C57.1389 172.319 49.4681 165.904 41.2577 161.002L40.869 161.002L40.869 148.759L41.118 148.612C49.3941 143.685 57.1053 137.247 64.0878 129.277C75.6367 116.09 81.5879 103.039 82.8085 100.196L69.2098 97.0959Z" fill="#F5AC3C" stroke="#F5AC3C" stroke-width="1.01806"></path>
<path d="M36.5373 154.757C107.872 161.452 289.842 147.215 327 1.2333" stroke="#F5AC3C" stroke-width="10"></path>
</svg>