<svg width="388" height="240" viewBox="0 0 388 240" fill="currentColor" xmlns="http://www.w3.org/2000/svg">
<path d="M225.948 239.374C264.294 239.147 278.882 225.243 289.094 205.485C305.584 173.514 287.663 138.876 274.572 124.728C272.182 122.354 268.506 118.419 265.986 116.175L261.53 112.06L260.408 111.02C259.237 109.995 258.017 109.036 256.928 108.109C228.095 83.9599 193.44 67.1614 157.939 54.4284C157.777 54.3796 157.614 54.3145 157.451 54.2658C152.735 52.6233 154.557 45.5494 159.484 46.4276C159.663 46.4601 159.858 46.4926 160.037 46.5251C191.781 52.477 274.816 82.2849 387.091 124.972V0H0V239.374C0 239.374 190.057 239.586 225.948 239.374Z" fill="currentColor"></path>
</svg>