<svg width="345" height="263" viewBox="0 0 345 263" fill="currentColor" xmlns="http://www.w3.org/2000/svg">
<path d="M0.115643 84.7242C0.392101 38.1503 17.1585 20.4411 41.1779 8.04961C79.9959 -11.985 122.083 9.77337 139.256 25.6937C142.15 28.6046 146.915 33.0766 149.647 36.1175L154.656 41.5327L155.908 42.8825C157.16 44.2973 158.315 45.7771 159.453 47.1105C188.79 82.1223 209.183 124.208 224.633 167.318C224.698 167.513 224.763 167.708 224.844 167.904C226.844 173.644 235.431 171.416 234.357 165.432C234.325 165.204 234.276 164.976 234.227 164.749C227.007 126.224 190.791 25.3685 173.455 0H213.883C383.401 0 390.67 253.701 221.38 262.515C214.729 262.856 0.115643 262.515 0.115643 262.515C0.115643 262.515 -0.144553 128.306 0.115643 84.7242Z" fill="currentColor"></path>
</svg>