<svg width="318" height="311" viewBox="0 0 318 311" fill="currentColor" xmlns="http://www.w3.org/2000/svg">
<path d="M317.984 94.6791C317.984 94.0932 318 93.5237 318 92.9378C317.984 28.3321 264.59 0 198.732 0H0V144.183C67.8604 64.8335 195.868 79.7888 195.868 79.7888C199.155 79.3332 200.18 84.0851 196.99 85.0126C196.99 85.0126 137.104 81.1233 89.2112 102.393C41.3184 123.662 0 161.758 0 221.043H0.0162735C0.471931 250.725 8.55985 277.088 32.4656 294.778C46.6072 305.225 63.9385 310.449 81.5138 310.221H317.984V187.731C223.956 223.581 121.01 226.039 121.01 226.039C116.957 226.12 118.341 221.775 122.132 220.815C122.132 220.815 175.607 219.008 224.167 198.146C272.727 177.283 317.365 144.85 317.984 95.0371C317.967 94.9069 317.967 94.793 317.984 94.6791Z" fill="currentColor"></path>
</svg>