<svg width="410" height="256" viewBox="0 0 410 256" fill="currentColor" xmlns="http://www.w3.org/2000/svg">
<path d="M280.492 0.292726L125.967 0C64.5611 0.813092 12.4243 45.2404 1.91885 105.751C-11.7577 184.474 49.4372 256.547 129.334 255.506H283.858C345.264 254.693 397.401 210.266 407.906 149.755C421.583 71.0317 360.388 -0.748032 280.492 0.292726ZM337.263 112.451C337.263 112.451 273.58 131.672 213.963 142.177C154.361 152.682 74.0745 144.649 74.0745 144.649C70.9034 144.991 70.074 140.388 73.1638 139.608C73.1638 139.608 120.503 125.07 178.934 115.134C237.364 105.198 336.352 107.409 336.352 107.409C339.524 107.068 340.353 111.67 337.263 112.451Z" fill="currentColor"></path>
</svg>