<svg width="334" height="271" viewBox="0 0 334 271" fill="currentColor" xmlns="http://www.w3.org/2000/svg">
<path d="M256.423 26.0382C243.983 40.5601 237.884 51.8458 231.51 69.8639L222.126 91.5409C219.638 97.2976 211.605 97.0049 209.523 91.0856L201.929 69.62C169.111 -25.5606 0 4.50757 0 4.50757V270.275H168.981C186.691 240.093 190.285 197.422 178.657 153.19C174.397 132.813 166.461 112.763 154.475 93.9965C152.475 90.8742 150.426 87.8658 148.312 85.0037C143.937 78.255 139.319 71.8316 134.456 65.7822C129.757 56.4804 136.196 56.9195 153.613 73.4578C172.64 91.5247 186.967 112.568 215.361 183.941C229.233 226.189 265.872 254.338 283.63 263.022C283.955 263.185 284.281 263.347 284.606 263.494C284.639 263.494 284.671 263.526 284.687 263.542C293.859 267.917 303.665 270.275 313.846 270.275C320.464 270.275 326.92 269.267 333.149 267.364V4.52383H305.714C287.663 4.52383 270.198 11.6465 257.724 24.6885C257.302 25.1276 256.879 25.5829 256.456 26.0382H256.423Z" fill="currentColor"></path>
</svg>