<svg width="403" height="291" viewBox="0 0 403 291" fill="currentColor" xmlns="http://www.w3.org/2000/svg">
<path d="M199.497 109.131V200.747C199.497 206.981 190.379 207.646 189.469 201.478L170.178 69.1342C168.78 59.5083 166.049 50.0773 161.661 41.3929C145.945 10.3239 118.398 0.45451 86.7546 0.0162325C86.2183 0 85.682 0 85.1457 0C25.9549 0 0 48.8598 0 109.131V290.984H87.8435L73.1027 111.761C72.6802 108.742 77.0358 107.816 77.8809 110.738L108.451 291H199.497H202.52H402.016L369.674 69.1504C368.277 59.5246 365.546 50.0935 361.158 41.4091C345.442 10.3401 317.894 0.470742 286.251 0.0162325C285.715 0 285.179 0 284.642 0C225.452 0 199.497 48.8598 199.497 109.131Z" fill="currentColor"></path>
</svg>