<svg width="435" height="100" viewBox="0 0 435 100" fill="none" xmlns="http://www.w3.org/2000/svg">
<path d="M284.849 38.7017C285.228 25.6825 276.122 19.2555 263.223 19.2555C251.272 19.2555 241.788 24.5278 236.096 27.3305L230.594 30.2961C227.56 22.8797 220.162 19.2555 210.487 19.2555C198.536 19.2555 188.861 24.5278 183.36 27.3305L179.453 29.3983V19.2555H151.466V99.5508H179.453V44.3683C179.481 41.3341 179.519 38.5517 179.568 36.1559C183.929 33.0251 189.242 30.2223 193.986 30.2223C201.573 30.2223 203.803 34.8359 203.991 43.4069C204.561 59.2264 203.991 99.5508 203.991 99.5508H232.113C232.113 99.5508 231.925 58.5677 232.113 42.0869C232.113 40.1108 231.925 38.2974 231.543 36.6493C235.905 33.3531 241.788 30.2223 246.907 30.2223C254.306 30.2223 256.582 34.8359 256.77 43.4069C257.264 57.1561 257.472 68.8503 257.02 83.5736V99.5508H285.296C285.296 99.5508 284.465 55.1799 284.843 38.7017H284.849Z" fill="#F5AC3C"></path>
<path d="M331.992 19.2275C307.815 19.2275 292.036 35.4463 292.036 60.3582C292.036 83.4795 305.938 99.9247 332.366 99.9247C350.171 99.9247 361.418 92.2718 366.103 77.4544L364.79 76.1522C360.479 79.5704 353.666 81.0354 346.918 81.0354C331.737 81.0354 321.803 73.5453 318.242 59.8699C330.926 60.0021 367.68 59.8699 367.68 59.8699C367.68 59.8699 371.993 19.2275 331.992 19.2275ZM340.395 52.4357H317.098C316.905 50.546 316.811 48.3511 316.811 46.2961C316.811 30.9904 322.434 25.4053 329.932 25.4053C337.429 25.4053 341.435 37.8879 340.397 52.4357H340.395Z" fill="#F5AC3C"></path>
<path d="M434.104 79.2322C427.315 82.9938 419.635 83.2227 415.662 82.2562C408.289 80.4632 404.67 71.8794 404.67 62.9676V29.8764H425.934C427.839 29.8764 429.386 28.3326 429.386 26.4251V23.5054H404.888V0H400.58C400.58 9.7155 390.913 25.4053 370.447 25.4053H367.608V29.8764H373.466C375.95 29.9171 376.2 31.7738 376.2 32.7097V59.5672C376.2 72.4771 377.947 82.6377 381.52 87.821C385.747 93.958 391.943 99.2125 402.627 99.8357C409.906 100.26 414.871 99.1439 419.894 96.7277C425.52 94.0216 430.805 89.1003 435.004 80.7633L434.111 79.2322H434.104Z" fill="#F5AC3C"></path>
<path d="M102.754 19.2274C81.1359 20.6619 64.6094 38.2032 66.0871 60.4446C66.2193 62.4461 67.3053 66.078 68.9738 67.9016C70.7388 69.8294 73.5924 72.126 79.8795 73.6241C86.8203 75.2772 90.2563 72.7339 91.5915 70.394C92.057 69.5751 91.9781 68.1457 91.9705 67.1284C91.8866 57.3061 90.6836 43.2313 94.9818 33.7981C97.3394 28.625 100.819 25.4026 104.148 25.4026C112.849 25.4026 115.618 33.259 116.501 47.4838C117.691 66.6503 107.808 80.3486 88.8473 81.343C77.588 81.9331 72.4759 77.6985 72.4759 77.6985C72.4759 77.6985 69.0094 81.7169 55.456 81.7169C37.345 81.7169 25.2642 66.663 26.4341 46.7284C27.2785 32.351 33.5808 25.4026 41.8873 25.4026C46.6205 25.4026 49.3418 29.3804 52.404 34.3272C54.9855 38.4957 57.2846 46.5071 58.7064 51.721C58.7064 51.721 60.2018 43.3203 63.6735 35.6446C66.5627 29.2583 71.4281 24.3192 71.4281 24.3192C64.4492 21.7224 58.8488 19.9421 48.3881 19.3292C46.8392 19.2376 45.3234 19.2122 43.8304 19.2274C31.0604 19.3546 20.4242 23.284 12.6569 29.7721C5.45677 36.6161 0.708383 46.1994 0.0725524 57.034C-1.07957 76.6582 11.6116 93.8003 29.4785 98.4596C31.8794 99.0853 34.3693 99.4948 36.938 99.6448C37.2025 99.6601 37.4645 99.6601 37.729 99.6702C52.1039 100.222 65.0519 92.7473 72.3615 81.076C79.849 93.1517 93.293 100.822 108.113 99.8381C129.731 98.4037 146.118 79.138 144.64 56.8966C143.163 34.6552 124.375 17.7905 102.757 19.2249L102.754 19.2274Z" fill="#F5AC3C"></path>
</svg>